# xmcd
#
# Track frame offsets:
#	150
#	12093
#	25113
#	37031
#	51033
#	64669
#	74525
#	86865
#	98946
#	107632
#	121140
#	129265
#	141907
#	151835
#	164505
#	172293
#	181888
#	195317
#	207467
#	220376
#	229311
#	238526
#	251082
#	264097
#	279754
#
# Disc length: 3937 seconds
# Revision: 0
# Processed by: cddbd v1.5.2PL0 Copyright (c) Steve Scherf et al.
# Submitted via: dBpowerAMP V12.0
#
DISCID=630f5f19
DTITLE=Lonnie Johnson - Chronological Classics 1947-1948
DYEAR=2008
DGENRE=Blues
TTITLE0=I Am So Glad
TTITLE1=What a Woman
TTITLE2=Happy New Year Darling
TTITLE3=Tomorrow Night
TTITLE4=Friendless Blues
TTITLE5=My Baby's Gone
TTITLE6=I Want My Baby
TTITLE7=What a Real Woman
TTITLE8=Love That Gal
TTITLE9=It's Been So Long
TTITLE10=Be Sweet to Me
TTITLE11=Blues in the Closet
TTITLE12=Don't Be No Fool
TTITLE13=Falling Rain Blues
TTITLE14=Blue Ghost Has Got Me
TTITLE15=Feeling Low Down
TTITLE16=Drunk Again
TTITLE17=Jelly Roll Baker
TTITLE18=Working Man's Blues
TTITLE19=Chicago Blues
TTITLE20=Lazy Woman
TTITLE21=In Love Again
TTITLE22=Tomorrow Night
TTITLE23=Lonesome Day Blues
TTITLE24=Tell Me Baby
EXTD=
EXTT0=
EXTT1=
EXTT2=
EXTT3=
EXTT4=
EXTT5=
EXTT6=
EXTT7=
EXTT8=
EXTT9=
EXTT10=
EXTT11=
EXTT12=
EXTT13=
EXTT14=
EXTT15=
EXTT16=
EXTT17=
EXTT18=
EXTT19=
EXTT20=
EXTT21=
EXTT22=
EXTT23=
EXTT24=
PLAYORDER=
